<svg width="140" height="48" viewBox="0 0 140 48" fill="none" xmlns="http://www.w3.org/2000/svg">
<path d="M72.48 28.16C71.3067 28.16 70.2987 27.9253 69.456 27.456C68.624 26.976 67.984 26.304 67.536 25.44C67.088 24.5653 66.864 23.536 66.864 22.352C66.864 21.4667 66.992 20.672 67.248 19.968C67.504 19.2533 67.872 18.6453 68.352 18.144C68.832 17.632 69.4187 17.2427 70.112 16.976C70.816 16.6987 71.6053 16.56 72.48 16.56C73.0667 16.56 73.6427 16.6347 74.208 16.784C74.7733 16.9333 75.2693 17.1467 75.696 17.424C75.92 17.5627 76.0693 17.7333 76.144 17.936C76.2187 18.128 76.2347 18.32 76.192 18.512C76.1493 18.6933 76.0587 18.848 75.92 18.976C75.792 19.104 75.6267 19.1787 75.424 19.2C75.232 19.2107 75.0187 19.1413 74.784 18.992C74.4533 18.7787 74.096 18.624 73.712 18.528C73.328 18.432 72.9387 18.384 72.544 18.384C71.7867 18.384 71.1467 18.5387 70.624 18.848C70.1013 19.1573 69.7067 19.6053 69.44 20.192C69.1733 20.7787 69.04 21.4987 69.04 22.352C69.04 23.1947 69.1733 23.9147 69.44 24.512C69.7067 25.1093 70.1013 25.5627 70.624 25.872C71.1467 26.1813 71.7867 26.336 72.544 26.336C72.9493 26.336 73.3493 26.288 73.744 26.192C74.1387 26.0853 74.512 25.9253 74.864 25.712C75.0987 25.5733 75.3067 25.5147 75.488 25.536C75.68 25.5467 75.84 25.6107 75.968 25.728C76.096 25.8453 76.1813 25.9947 76.224 26.176C76.2667 26.3467 76.256 26.528 76.192 26.72C76.128 26.9013 76 27.0613 75.808 27.2C75.3813 27.5093 74.8693 27.7493 74.272 27.92C73.6853 28.08 73.088 28.16 72.48 28.16ZM80.9205 28.16C80.1098 28.16 79.4058 27.9947 78.8085 27.664C78.2112 27.3333 77.7472 26.864 77.4165 26.256C77.0858 25.6373 76.9205 24.912 76.9205 24.08C76.9205 23.4507 77.0112 22.8907 77.1925 22.4C77.3845 21.8987 77.6565 21.472 78.0085 21.12C78.3605 20.7573 78.7818 20.4853 79.2725 20.304C79.7632 20.112 80.3125 20.016 80.9205 20.016C81.7312 20.016 82.4352 20.1813 83.0325 20.512C83.6298 20.8427 84.0938 21.312 84.4245 21.92C84.7552 22.528 84.9205 23.248 84.9205 24.08C84.9205 24.7093 84.8245 25.2747 84.6325 25.776C84.4512 26.2773 84.1845 26.7093 83.8325 27.072C83.4805 27.424 83.0592 27.696 82.5685 27.888C82.0778 28.0693 81.5285 28.16 80.9205 28.16ZM80.9205 26.64C81.3152 26.64 81.6618 26.544 81.9605 26.352C82.2592 26.16 82.4885 25.8773 82.6485 25.504C82.8192 25.12 82.9045 24.6453 82.9045 24.08C82.9045 23.2267 82.7232 22.592 82.3605 22.176C81.9978 21.7493 81.5178 21.536 80.9205 21.536C80.5258 21.536 80.1792 21.632 79.8805 21.824C79.5818 22.0053 79.3472 22.288 79.1765 22.672C79.0165 23.0453 78.9365 23.5147 78.9365 24.08C78.9365 24.9227 79.1178 25.5627 79.4805 26C79.8432 26.4267 80.3232 26.64 80.9205 26.64ZM87.5953 28.128C87.2753 28.128 87.0299 28.0427 86.8593 27.872C86.6886 27.6907 86.6033 27.4347 86.6033 27.104V21.056C86.6033 20.7253 86.6886 20.4747 86.8593 20.304C87.0299 20.1333 87.2699 20.048 87.5793 20.048C87.8886 20.048 88.1286 20.1333 88.2993 20.304C88.4699 20.4747 88.5553 20.7253 88.5553 21.056V22.224L88.3793 21.744C88.5926 21.2107 88.9233 20.7893 89.3713 20.48C89.8193 20.1707 90.3526 20.016 90.9713 20.016C91.6006 20.016 92.1179 20.1653 92.5233 20.464C92.9286 20.7627 93.2113 21.2213 93.3713 21.84H93.1473C93.3606 21.2747 93.7126 20.832 94.2033 20.512C94.6939 20.1813 95.2593 20.016 95.8993 20.016C96.4966 20.016 96.9873 20.1333 97.3713 20.368C97.7659 20.6027 98.0593 20.96 98.2513 21.44C98.4433 21.9093 98.5393 22.5067 98.5393 23.232V27.104C98.5393 27.4347 98.4486 27.6907 98.2673 27.872C98.0966 28.0427 97.8513 28.128 97.5313 28.128C97.2113 28.128 96.9659 28.0427 96.7953 27.872C96.6246 27.6907 96.5393 27.4347 96.5393 27.104V23.312C96.5393 22.7147 96.4379 22.2773 96.2353 22C96.0433 21.7227 95.7126 21.584 95.2433 21.584C94.7206 21.584 94.3099 21.7707 94.0113 22.144C93.7126 22.5067 93.5633 23.0133 93.5633 23.664V27.104C93.5633 27.4347 93.4779 27.6907 93.3073 27.872C93.1366 28.0427 92.8913 28.128 92.5713 28.128C92.2513 28.128 92.0006 28.0427 91.8193 27.872C91.6486 27.6907 91.5633 27.4347 91.5633 27.104V23.312C91.5633 22.7147 91.4619 22.2773 91.2593 22C91.0673 21.7227 90.7419 21.584 90.2833 21.584C89.7606 21.584 89.3499 21.7707 89.0513 22.144C88.7526 22.5067 88.6033 23.0133 88.6033 23.664V27.104C88.6033 27.7867 88.2673 28.128 87.5953 28.128Z" fill="#1E1E1E"/>
<path d="M101.851 28.128C101.52 28.128 101.259 28.0373 101.067 27.856C100.885 27.664 100.795 27.392 100.795 27.04V17.808C100.795 17.456 100.885 17.1893 101.067 17.008C101.259 16.816 101.531 16.72 101.883 16.72H107.467C107.744 16.72 107.952 16.7893 108.091 16.928C108.229 17.0667 108.299 17.264 108.299 17.52C108.299 17.7867 108.229 17.9947 108.091 18.144C107.952 18.2827 107.744 18.352 107.467 18.352H102.843V21.536H107.131C107.397 21.536 107.6 21.6053 107.739 21.744C107.888 21.8827 107.963 22.08 107.963 22.336C107.963 22.6027 107.888 22.8107 107.739 22.96C107.6 23.0987 107.397 23.168 107.131 23.168H102.843V27.04C102.843 27.7653 102.512 28.128 101.851 28.128ZM112.874 28.16C112.063 28.16 111.359 27.9947 110.762 27.664C110.164 27.3333 109.7 26.864 109.37 26.256C109.039 25.6373 108.874 24.912 108.874 24.08C108.874 23.4507 108.964 22.8907 109.146 22.4C109.338 21.8987 109.61 21.472 109.962 21.12C110.314 20.7573 110.735 20.4853 111.226 20.304C111.716 20.112 112.266 20.016 112.874 20.016C113.684 20.016 114.388 20.1813 114.986 20.512C115.583 20.8427 116.047 21.312 116.378 21.92C116.708 22.528 116.874 23.248 116.874 24.08C116.874 24.7093 116.778 25.2747 116.586 25.776C116.404 26.2773 116.138 26.7093 115.786 27.072C115.434 27.424 115.012 27.696 114.522 27.888C114.031 28.0693 113.482 28.16 112.874 28.16ZM112.874 26.64C113.268 26.64 113.615 26.544 113.914 26.352C114.212 26.16 114.442 25.8773 114.602 25.504C114.772 25.12 114.858 24.6453 114.858 24.08C114.858 23.2267 114.676 22.592 114.314 22.176C113.951 21.7493 113.471 21.536 112.874 21.536C112.479 21.536 112.132 21.632 111.834 21.824C111.535 22.0053 111.3 22.288 111.13 22.672C110.97 23.0453 110.89 23.5147 110.89 24.08C110.89 24.9227 111.071 25.5627 111.434 26C111.796 26.4267 112.276 26.64 112.874 26.64ZM119.548 28.128C119.218 28.128 118.962 28.0427 118.78 27.872C118.61 27.6907 118.524 27.4347 118.524 27.104V21.056C118.524 20.7253 118.61 20.4747 118.78 20.304C118.951 20.1333 119.191 20.048 119.5 20.048C119.81 20.048 120.05 20.1333 120.22 20.304C120.391 20.4747 120.476 20.7253 120.476 21.056V22.064H120.316C120.466 21.424 120.759 20.9387 121.196 20.608C121.634 20.2773 122.215 20.08 122.94 20.016C123.164 19.9947 123.34 20.0533 123.468 20.192C123.607 20.32 123.687 20.5227 123.708 20.8C123.73 21.0667 123.666 21.2853 123.516 21.456C123.378 21.616 123.164 21.712 122.876 21.744L122.524 21.776C121.874 21.84 121.383 22.0427 121.052 22.384C120.722 22.7147 120.556 23.184 120.556 23.792V27.104C120.556 27.4347 120.471 27.6907 120.3 27.872C120.13 28.0427 119.879 28.128 119.548 28.128ZM128.827 28.16C128.134 28.16 127.552 28.0427 127.083 27.808C126.624 27.5733 126.283 27.232 126.059 26.784C125.835 26.3253 125.723 25.76 125.723 25.088V21.68H124.891C124.635 21.68 124.438 21.616 124.299 21.488C124.16 21.3493 124.091 21.1627 124.091 20.928C124.091 20.6827 124.16 20.496 124.299 20.368C124.438 20.24 124.635 20.176 124.891 20.176H125.723V18.72C125.723 18.3893 125.808 18.1387 125.979 17.968C126.16 17.7973 126.411 17.712 126.731 17.712C127.051 17.712 127.296 17.7973 127.467 17.968C127.638 18.1387 127.723 18.3893 127.723 18.72V20.176H129.419C129.675 20.176 129.872 20.24 130.011 20.368C130.15 20.496 130.219 20.6827 130.219 20.928C130.219 21.1627 130.15 21.3493 130.011 21.488C129.872 21.616 129.675 21.68 129.419 21.68H127.723V24.976C127.723 25.488 127.835 25.872 128.059 26.128C128.283 26.384 128.646 26.512 129.147 26.512C129.328 26.512 129.488 26.496 129.627 26.464C129.766 26.432 129.888 26.4107 129.995 26.4C130.123 26.3893 130.23 26.432 130.315 26.528C130.4 26.6133 130.443 26.7947 130.443 27.072C130.443 27.2853 130.406 27.4773 130.331 27.648C130.267 27.808 130.144 27.92 129.963 27.984C129.824 28.0267 129.643 28.064 129.419 28.096C129.195 28.1387 128.998 28.16 128.827 28.16ZM133.96 28.16C133.394 28.16 132.888 28.0533 132.44 27.84C132.002 27.616 131.656 27.3173 131.4 26.944C131.154 26.5707 131.032 26.1493 131.032 25.68C131.032 25.104 131.181 24.6507 131.48 24.32C131.778 23.9787 132.264 23.7333 132.936 23.584C133.608 23.4347 134.509 23.36 135.64 23.36H136.44V24.512H135.656C134.994 24.512 134.466 24.544 134.072 24.608C133.677 24.672 133.394 24.784 133.224 24.944C133.064 25.0933 132.984 25.3067 132.984 25.584C132.984 25.936 133.106 26.224 133.352 26.448C133.597 26.672 133.938 26.784 134.376 26.784C134.728 26.784 135.037 26.704 135.304 26.544C135.581 26.3733 135.8 26.144 135.96 25.856C136.12 25.568 136.2 25.2373 136.2 24.864V23.024C136.2 22.4907 136.082 22.1067 135.848 21.872C135.613 21.6373 135.218 21.52 134.664 21.52C134.354 21.52 134.018 21.5573 133.656 21.632C133.304 21.7067 132.93 21.8347 132.536 22.016C132.333 22.112 132.152 22.1387 131.992 22.096C131.842 22.0533 131.725 21.968 131.64 21.84C131.554 21.7013 131.512 21.552 131.512 21.392C131.512 21.232 131.554 21.0773 131.64 20.928C131.725 20.768 131.869 20.6507 132.072 20.576C132.562 20.3733 133.032 20.2293 133.48 20.144C133.938 20.0587 134.354 20.016 134.728 20.016C135.496 20.016 136.125 20.1333 136.616 20.368C137.117 20.6027 137.49 20.96 137.736 21.44C137.981 21.9093 138.104 22.5173 138.104 23.264V27.104C138.104 27.4347 138.024 27.6907 137.864 27.872C137.704 28.0427 137.474 28.128 137.176 28.128C136.877 28.128 136.642 28.0427 136.472 27.872C136.312 27.6907 136.232 27.4347 136.232 27.104V26.336H136.36C136.285 26.7093 136.136 27.0347 135.912 27.312C135.698 27.5787 135.426 27.7867 135.096 27.936C134.765 28.0853 134.386 28.16 133.96 28.16Z" fill="#E58411"/>
<rect width="48" height="48" rx="4" fill="#E58411"/>
<path d="M14.8 22.0645V25.9355H34.8V22.0645C34.8 19.9294 36.5937 18.1935 38.8 18.1935H40.8C40.8 14.9879 38.1125 12.3871 34.8 12.3871H14.8C11.4875 12.3871 8.79999 14.9879 8.79999 18.1935H10.8C13.0062 18.1935 14.8 19.9294 14.8 22.0645ZM40.8 20.129H38.8C37.6937 20.129 36.8 20.9939 36.8 22.0645V27.871H12.8V22.0645C12.8 20.9939 11.9062 20.129 10.8 20.129H8.79999C6.59374 20.129 4.79999 21.8649 4.79999 24C4.79999 25.4274 5.61249 26.6613 6.79999 27.3327V34.6451C6.79999 35.1774 7.24999 35.6129 7.79999 35.6129H11.8C12.35 35.6129 12.8 35.1774 12.8 34.6451V33.6774H36.8V34.6451C36.8 35.1774 37.25 35.6129 37.8 35.6129H41.8C42.35 35.6129 42.8 35.1774 42.8 34.6451V27.3327C43.9875 26.6613 44.8 25.4274 44.8 24C44.8 21.8649 43.0062 20.129 40.8 20.129Z" fill="white"/>
</svg>